<svg xmlns="http://www.w3.org/2000/svg" viewBox="0 0 900 500">
  <!-- Styles -->
  <defs>
    <marker id="arrowhead" markerWidth="10" markerHeight="7" 
            refX="9" refY="3.5" orient="auto">
      <polygon points="0 0, 10 3.5, 0 7" fill="#666"/>
    </marker>
  </defs>
  
  <style>
    text {
      font-family: Arial, sans-serif;
      font-size: 14px;
    }
    .domain-label {
      font-weight: bold;
      font-size: 16px;
    }
    .node-label {
      font-size: 13px;
      text-anchor: middle;
      dominant-baseline: middle;
    }
    .node {
      stroke: #333;
      stroke-width: 1.5px;
    }
    .domain {
      fill-opacity: 0.2;
      stroke: #333;
      stroke-width: 1.5px;
      stroke-dasharray: 5,3;
    }
    .link {
      stroke: #666;
      stroke-width: 1.5px;
      fill: none;
      marker-end: url(#arrowhead);
    }
  </style>

  <!-- Title -->
  <text x="450" y="30" text-anchor="middle" font-size="20" font-weight="bold">Multi-View Transformer EEG (MVTEEG) Architecture</text>
  
  <!-- Domain Groups -->
  <!-- Time Domain -->
  <rect class="domain" x="180" y="60" width="320" height="100" rx="5" ry="5" fill="#FFB6C1"/>
  <text class="domain-label" x="340" y="50" text-anchor="middle">Time Domain</text>
  
  <!-- Frequency Domain -->
  <rect class="domain" x="180" y="190" width="420" height="100" rx="5" ry="5" fill="#ADD8E6"/>
  <text class="domain-label" x="390" y="180" text-anchor="middle">Frequency Domain</text>
  
  <!-- Spatial Domain -->
  <rect class="domain" x="180" y="320" width="320" height="100" rx="5" ry="5" fill="#90EE90"/>
  <text class="domain-label" x="340" y="310" text-anchor="middle">Spatial Domain</text>
  
  <!-- Cross-view Attention -->
  <rect class="domain" x="520" y="60" width="140" height="360" rx="5" ry="5" fill="#D3D3D3"/>
  <text class="domain-label" x="590" y="50" text-anchor="middle">Cross-View Attention</text>
  
  <!-- Fusion & Classification -->
  <rect class="domain" x="680" y="190" width="200" height="100" rx="5" ry="5" fill="#FFFACD"/>
  <text class="domain-label" x="780" y="180" text-anchor="middle">Fusion & Classification</text>
  
  <!-- Nodes (boxes) -->
  <!-- Input -->
  <rect class="node" x="50" y="220" width="100" height="40" rx="5" ry="5" fill="#D3D3D3"/>
  <text class="node-label" x="100" y="240">EEG Input</text>
  
  <!-- Time Domain -->
  <rect class="node" x="200" y="100" width="100" height="40" rx="5" ry="5" fill="#FFB6C1"/>
  <text class="node-label" x="250" y="120">Time Conv</text>
  
  <rect class="node" x="330" y="100" width="100" height="40" rx="5" ry="5" fill="#FFB6C1"/>
  <text class="node-label" x="380" y="120">MVTEncoder</text>
  
  <!-- Frequency Domain -->
  <rect class="node" x="200" y="220" width="100" height="40" rx="5" ry="5" fill="#ADD8E6"/>
  <text class="node-label" x="250" y="240">FFT</text>
  
  <rect class="node" x="330" y="220" width="100" height="40" rx="5" ry="5" fill="#ADD8E6"/>
  <text class="node-label" x="380" y="240">Freq Conv</text>
  
  <rect class="node" x="460" y="220" width="100" height="40" rx="5" ry="5" fill="#ADD8E6"/>
  <text class="node-label" x="510" y="240">MVTEncoder</text>
  
  <!-- Spatial Domain -->
  <rect class="node" x="200" y="340" width="100" height="40" rx="5" ry="5" fill="#90EE90"/>
  <text class="node-label" x="250" y="360">Spatial Embed</text>
  
  <rect class="node" x="330" y="340" width="100" height="40" rx="5" ry="5" fill="#90EE90"/>
  <text class="node-label" x="380" y="360">MVTEncoder</text>
  
  <!-- Cross Attention -->
  <rect class="node" x="540" y="100" width="100" height="40" rx="5" ry="5" fill="#D3D3D3"/>
  <text class="node-label" x="590" y="120">Cross-Attention</text>
  
  <rect class="node" x="540" y="220" width="100" height="40" rx="5" ry="5" fill="#D3D3D3"/>
  <text class="node-label" x="590" y="240">Cross-Attention</text>
  
  <rect class="node" x="540" y="340" width="100" height="40" rx="5" ry="5" fill="#D3D3D3"/>
  <text class="node-label" x="590" y="360">Cross-Attention</text>
  
  <!-- Fusion and Classification -->
  <rect class="node" x="700" y="220" width="100" height="40" rx="5" ry="5" fill="#FFFACD"/>
  <text class="node-label" x="750" y="240">Feature Fusion</text>
  
  <rect class="node" x="830" y="220" width="100" height="40" rx="5" ry="5" fill="#FFFACD"/>
  <text class="node-label" x="880" y="240">Classifier</text>
  
  <!-- Output -->
  <rect class="node" x="960" y="220" width="100" height="40" rx="5" ry="5" fill="#D3D3D3" transform="translate(-100,0)"/>
  <text class="node-label" x="910" y="240">Output</text>
  
  <!-- Connection Lines -->
  <!-- Input to Time Domain -->
  <path class="link" d="M150,220 C175,220 175,100 200,100" stroke="#FFB6C1"/>
  
  <!-- Input to Frequency Domain -->
  <path class="link" d="M150,220 C175,220 175,220 200,220" stroke="#ADD8E6"/>
  
  <!-- Input to Spatial Domain -->
  <path class="link" d="M150,220 C175,220 175,340 200,340" stroke="#90EE90"/>
  
  <!-- Time Domain flow -->
  <path class="link" d="M300,100 C315,100 315,100 330,100" stroke="#FFB6C1"/>
  <path class="link" d="M430,100 C485,100 485,100 540,100" stroke="#FFB6C1"/>
  
  <!-- Frequency Domain flow -->
  <path class="link" d="M300,220 C315,220 315,220 330,220" stroke="#ADD8E6"/>
  <path class="link" d="M430,220 C445,220 445,220 460,220" stroke="#ADD8E6"/>
  <path class="link" d="M560,220 C620,220 620,220 700,220" stroke="#ADD8E6"/>
  
  <!-- Spatial Domain flow -->
  <path class="link" d="M300,340 C315,340 315,340 330,340" stroke="#90EE90"/>
  <path class="link" d="M430,340 C485,340 485,340 540,340" stroke="#90EE90"/>
  
  <!-- Cross-domain connections -->
  <path class="link" d="M460,240 C500,240 500,340 540,340" stroke="#ADD8E6" opacity="0.6"/>
  <path class="link" d="M430,120 C505,120 505,220 540,220" stroke="#FFB6C1" opacity="0.6"/>
  <path class="link" d="M380,360 C450,360 480,260 540,240" stroke="#90EE90" opacity="0.6"/>
  
  <!-- Cross Attention to Fusion -->
  <path class="link" d="M640,100 C670,100 670,210 700,220" stroke="#D3D3D3" opacity="0.7"/>
  <path class="link" d="M640,220 C670,220 670,220 700,220" stroke="#D3D3D3" opacity="0.7"/>
  <path class="link" d="M640,340 C670,340 670,230 700,220" stroke="#D3D3D3" opacity="0.7"/>
  
  <!-- Fusion to Classification to Output -->
  <path class="link" d="M800,220 C815,220 815,220 830,220" stroke="#FFFACD"/>
  <path class="link" d="M930,220 C945,220 945,220 960,220" stroke="#FFFACD" transform="translate(-100,0)"/>
  
  <!-- Legend -->
  <rect x="50" y="430" width="15" height="15" fill="#FFB6C1"/>
  <text x="75" y="443">Time Domain</text>
  
  <rect x="180" y="430" width="15" height="15" fill="#ADD8E6"/>
  <text x="205" y="443">Frequency Domain</text>
  
  <rect x="340" y="430" width="15" height="15" fill="#90EE90"/>
  <text x="365" y="443">Spatial Domain</text>
  
  <rect x="500" y="430" width="15" height="15" fill="#D3D3D3"/>
  <text x="525" y="443">Cross-View Attention</text>
  
  <rect x="680" y="430" width="15" height="15" fill="#FFFACD"/>
  <text x="705" y="443">Fusion & Classification</text>
</svg>